<svg version="1.1" viewBox="0 0 30 36" xmlns="http://www.w3.org/2000/svg">
    <g transform="matrix(.12042 0 0 .11994 -10.59 -7.416)">
        <g transform="matrix(1 0 0 1 -.0028594 0)">
            <path d="m130.1 262.35c6.157 6.2222 12.872 9.7366 16.23 11.826-4.4083 2.2563-13.364 5.7774-16.026 10.746-12.188 22.746 5.7676 28 17.4 46.121 13.118 23.691 15.942 39.365 46.909 26.068 10.614-4.5574 23.295-6.6228 31.595-8.7408 13.906-3.5488 33.282-10.436 39.583-13.78 19.177-10.096 35.48-25.024 42.839-47.715 12.981-40.026-13.524-68.136-20.962-110.44-4.1128-23.394-6.3042-23.645-11.6-28.948 3.0592-20.673 13.155-54.364-10.074-78.513-44.922-30.302-97.702 43.19-125.87 82.575-7.461 10.432-13.978 21.543-19.181 33.267-5.8008 13.069-8.4812 19.52-8.0387 35.58 0.44031 15.981 6.5602 30.859 17.197 41.956z"/>
            <path d="m247.16 76.889c-13.904 1.1009-25.322 0.7655-35.436 9.2524-29.504 20.011-57.568 50.864-75.077 96.168-6.264 11.489-5.8589 27.073-3.0297 40.135 2.0286 13.494 15.347 41.09 63.418 41.327 48.07 0.23734 56.584-39.282 62.804-65.077 12.227 31.326 10.118 46.818 6.5823 59.705-3.5359 12.888-28.859 24.587-44.853 28.277-24.126 5.5664-51.952 11.678-75.086 10.823 12.129 11.062 21.998 24.44 28.298 39.637 2.4408 8.6338 13.045-2.5528 19.964-2.6457 26.903-8.1914 57.036-11.41 78.752-31.068 15.774-13.336 30.091-34.141 25.173-53.395-7.0296-28.882-14.263-54.721-25.553-82.822 0.83473-3.7052-12.575 1.9886-15.412 0.20725-12.716 58.002-60.278 76.072-93.019 55.374-10.063-6.3617-11.104-25.578-7.2132-38.172 9.1922-29.754 21.773-43.797 42.256-66.302 10.438-10.379 13.628-9.0133 28.055-13.747 10.642-2.6278 18.693 5.9829 17.989 13.666-3.7474 20.814-10.645 28.648-17.91 39.155-14.58 21.089-49.581 44.665-25.494-13.631-49.863 87.219 42.399 27.394 52.179 10.737 17.27-21.048 15.557-31.884 11.84-51.02-0.65586-8.8591-9.3767-27.644-19.226-26.585z" color="#000000" fill="#fff" style="-inkscape-stroke:none"/>
        </g>
    </g>
</svg>
